<?xml version="1.0" standalone="no"?>
<!DOCTYPE svg PUBLIC "-//W3C//DTD SVG 20010904//EN"
 "http://www.w3.org/TR/2001/REC-SVG-20010904/DTD/svg10.dtd">
<svg version="1.0" xmlns="http://www.w3.org/2000/svg"
 width="912.000000pt" height="912.000000pt" viewBox="0 0 912.000000 912.000000"
 preserveAspectRatio="xMidYMid meet">
<metadata>
Created by potrace 1.14, written by Peter Selinger 2001-2017
</metadata>
<g transform="translate(0.000000,912.000000) scale(0.100000,-0.100000)"
fill="#000000" stroke="none">
<path d="M1617 9104 c-1 -1 -33 -5 -72 -9 -237 -23 -537 -130 -745 -266 -202
-132 -372 -302 -517 -519 -58 -86 -182 -340 -166 -340 3 0 1 -6 -5 -12 -8 -11
-35 -95 -48 -148 -17 -78 -35 -167 -43 -225 -11 -82 -10 -6040 2 -6095 15 -70
37 -175 41 -195 13 -60 72 -217 116 -310 94 -193 254 -409 391 -527 30 -26 68
-59 84 -73 95 -82 316 -208 482 -274 99 -40 290 -85 415 -98 97 -10 5934 -10
6018 0 275 34 532 126 755 271 91 60 97 64 205 157 68 59 100 93 205 214 40
47 147 212 187 290 99 191 155 386 184 635 8 70 8 5873 0 5960 -4 36 -8 72
-11 80 -2 8 -6 33 -10 55 -11 77 -57 241 -92 329 -89 223 -217 420 -381 585
-155 156 -282 247 -472 339 -179 87 -362 142 -560 168 -43 6 -5957 13 -5963 8z"/>
</g>
</svg>
